<svg xmlns="http://www.w3.org/2000/svg" xmlns:xlink="http://www.w3.org/1999/xlink" viewBox="0 0 20 20" id="smile">
  <defs>
    <linearGradient id="a">
      <stop offset="0" stop-color="#000092"></stop>
      <stop offset="1" stop-color="#ff00f3"></stop>
    </linearGradient>
    <linearGradient xlink:href="#a" id="b" x1="2.5" x2="16" y1="10" y2="10" gradientUnits="userSpaceOnUse"></linearGradient>
  </defs>
  <path fill="url(#b)" d="M10 2.5A7.471 7.471 0 0 0 2.5 10c0 4.165 3.335 7.5 7.5 7.5s7.5-3.335 7.5-7.5-3.335-7.5-7.5-7.5zm0 1c3.635 0 6.5 2.865 6.5 6.5s-2.865 6.5-6.5 6.5-6.5-2.865-6.5-6.5S6.365 3.5 10 3.5zm-3 3c-.411 0-.802.146-1.078.422A1.516 1.516 0 0 0 5.5 8c0 .411.146.802.422 1.078S6.589 9.5 7 9.5c.411 0 .802-.146 1.078-.422S8.5 8.411 8.5 8c0-.411-.146-.802-.422-1.078A1.516 1.516 0 0 0 7 6.5zm6 0c-.411 0-.802.146-1.078.422A1.516 1.516 0 0 0 11.5 8c0 .411.146.802.422 1.078S12.589 9.5 13 9.5c.767 0 1.5-.622 1.5-1.5 0-.411-.146-.802-.422-1.078A1.516 1.516 0 0 0 13 6.5zm-6 1c.189 0 .297.055.371.129.074.074.129.182.129.371s-.055.297-.129.371C7.297 8.445 7.19 8.5 7 8.5s-.297-.055-.371-.129C6.555 8.297 6.5 8.19 6.5 8s.055-.297.129-.371C6.703 7.555 6.81 7.5 7 7.5zm6 0c.189 0 .297.055.371.129.074.074.129.182.129.371 0 .322-.267.5-.5.5-.189 0-.297-.055-.371-.129-.074-.074-.129-.182-.129-.371s.055-.297.129-.371c.074-.074.182-.129.371-.129zm-6.05 4.65c-.126 0-.25.05-.35.15-.2.2-.2.5 0 .7.9.9 2.1 1.5 3.4 1.5 1.3 0 2.5-.5 3.4-1.5.1-.2.1-.5-.1-.7-.2-.2-.5-.2-.7 0-.6.8-1.6 1.2-2.6 1.2s-2-.4-2.7-1.2a.498.498 0 0 0-.35-.15z"></path>
</svg>
